<?xml version="1.0" encoding="utf-8"?>
<!-- Generator: Adobe Illustrator 27.0.0, SVG Export Plug-In . SVG Version: 6.00 Build 0)  -->
<svg version="1.1" xmlns="http://www.w3.org/2000/svg" xmlns:xlink="http://www.w3.org/1999/xlink" x="0px" y="0px"
	 viewBox="0 0 1275 208" style="enable-background:new 0 0 1275 208;" xml:space="preserve">
<style type="text/css">
	.st0{display:none;}
	.st1{display:inline;}
	.st2{fill-rule:evenodd;clip-rule:evenodd;fill:#0084E6;}
	.st3{fill-rule:evenodd;clip-rule:evenodd;fill:#0D99FF;}
	.st4{fill-rule:evenodd;clip-rule:evenodd;fill:#007DD9;}
	.st5{fill-rule:evenodd;clip-rule:evenodd;fill:#0471BF;}
	.st6{fill-rule:evenodd;clip-rule:evenodd;fill:#0061A6;}
	.st7{fill:#CCCCCC;}
</style>
<g id="Background" class="st0">
	<rect class="st1" width="1275" height="208"/>
</g>
<g id="Layer_1">
	<g>
		<g>
			<path id="Triangle_4" class="st2" d="M298.3,103.7l-29.6-51.3H328L298.3,103.7z"/>
			<path id="Triangle_5" class="st3" d="M298.3,1.1l-29.6,51.3H328L298.3,1.1z"/>
			<path id="Triangle_3" class="st4" d="M239,206.4l-59.3-102.6l118.5,0L239,206.4z"/>
			<path id="Triangle_2" class="st5" d="M239,1.1l-59.3,102.6l118.5,0L239,1.1z"/>
			<path id="Triangle_1" class="st6" d="M120.5,206.4L2,1.1h237L120.5,206.4z"/>
		</g>
		<g>
			<path class="st7" d="M504.2,53.5l-31.4,106h-19.7l-22.3-80.2l-23.6,80.2l-19.5,0.2l-30-106.1h18.5l22,86.3l23.8-86.3h19.5
				l22.1,85.9l22.1-85.9H504.2z"/>
			<path class="st7" d="M587.1,123.9h-64.2c0.5,6.7,3,12.1,7.5,16.2c4.5,4.1,10,6.1,16.5,6.1c9.4,0,16-3.9,19.8-11.7h18.8
				c-2.5,7.7-7.1,14.1-13.8,19c-6.7,4.9-14.9,7.4-24.8,7.4c-8,0-15.2-1.8-21.6-5.4c-6.4-3.6-11.3-8.7-14.9-15.3
				c-3.6-6.6-5.4-14.2-5.4-22.8c0-8.6,1.8-16.2,5.3-22.8c3.5-6.6,8.4-11.6,14.8-15.2c6.4-3.6,13.6-5.3,21.9-5.3
				c7.9,0,15,1.7,21.2,5.2c6.2,3.5,11,8.3,14.5,14.6c3.5,6.3,5.2,13.4,5.2,21.6C587.7,118.5,587.5,121.4,587.1,123.9z M569.6,109.9
				c-0.1-6.4-2.4-11.5-6.9-15.4c-4.5-3.9-10-5.8-16.6-5.8c-6,0-11.1,1.9-15.4,5.7c-4.3,3.8-6.8,9-7.6,15.5H569.6z"/>
			<path class="st7" d="M633.2,78c5.1-2.6,10.9-3.9,17.2-3.9c7.4,0,14.1,1.8,20.1,5.3c6,3.6,10.7,8.6,14.2,15.2
				c3.5,6.6,5.2,14.1,5.2,22.5c0,8.4-1.7,16-5.2,22.6c-3.5,6.7-8.2,11.8-14.3,15.6c-6.1,3.7-12.7,5.6-20.1,5.6
				c-6.5,0-12.3-1.3-17.3-3.8c-5-2.5-9-5.8-12-9.8v12.2h-17.4V50h17.4v38C624,83.9,628.1,80.5,633.2,78z M668.6,102
				c-2.4-4.2-5.5-7.4-9.5-9.6c-3.9-2.2-8.1-3.3-12.6-3.3c-4.4,0-8.5,1.1-12.4,3.4c-3.9,2.2-7.1,5.5-9.5,9.8
				c-2.4,4.3-3.6,9.3-3.6,15.1c0,5.8,1.2,10.9,3.6,15.2c2.4,4.3,5.5,7.6,9.5,9.8c3.9,2.2,8.1,3.4,12.4,3.4c4.5,0,8.7-1.1,12.6-3.4
				c3.9-2.3,7.1-5.6,9.5-10c2.4-4.4,3.6-9.5,3.6-15.3C672.2,111.3,671,106.3,668.6,102z"/>
			<path class="st7" d="M783.8,84c-2.7-5.3-6.6-9.3-11.4-12c-4.9-2.7-10.5-4-16.9-4c-7,0-13.3,1.6-18.8,4.7
				c-5.5,3.2-9.8,7.6-12.9,13.4c-3.1,5.8-4.7,12.5-4.7,20.1c0,7.6,1.5,14.4,4.7,20.2c3.1,5.8,7.4,10.3,12.9,13.5
				c5.5,3.2,11.7,4.7,18.8,4.7c9.5,0,17.1-2.6,23-7.9c5.9-5.3,9.5-12.5,10.8-21.5h-39.8v-13.9h58.4v13.6c-1.1,8.2-4,15.8-8.8,22.7
				c-4.7,6.9-10.9,12.4-18.5,16.5c-7.6,4.1-16,6.2-25.2,6.2c-10,0-19.1-2.3-27.3-6.9c-8.2-4.6-14.8-11.1-19.6-19.3
				c-4.8-8.2-7.2-17.5-7.2-27.9s2.4-19.7,7.2-27.9c4.8-8.2,11.4-14.7,19.7-19.3c8.3-4.6,17.4-6.9,27.2-6.9c11.3,0,21.3,2.8,30.1,8.3
				c8.8,5.5,15.2,13.4,19.1,23.6H783.8z"/>
			<path class="st7" d="M894.2,100.3c-2.5,4.8-6.6,8.7-12.2,11.7c-5.6,3-12.8,4.5-21.5,4.5h-19.2v43h-17.4v-106h36.6
				c8.1,0,15,1.4,20.7,4.2c5.6,2.8,9.9,6.6,12.7,11.4c2.8,4.8,4.2,10.1,4.2,16C898,90.4,896.7,95.5,894.2,100.3z M875.3,97.8
				c3.3-3,4.9-7.2,4.9-12.7c0-11.6-6.6-17.4-19.7-17.4h-19.2v34.6h19.2C867.1,102.3,872,100.8,875.3,97.8z"/>
			<path class="st7" d="M929.6,53.5V121c0,8,2.1,14.1,6.3,18.1c4.2,4.1,10.1,6.1,17.6,6.1c7.6,0,13.5-2,17.8-6.1
				c4.2-4.1,6.3-10.1,6.3-18.1V53.5h17.4v67.3c0,8.6-1.9,16-5.6,22c-3.8,6-8.8,10.5-15.1,13.4c-6.3,3-13.3,4.4-20.9,4.4
				s-14.6-1.5-20.8-4.4c-6.3-2.9-11.2-7.4-14.9-13.4c-3.7-6-5.5-13.3-5.5-22V53.5H929.6z"/>
			<g>
				<path class="st7" d="M1005.8,158.6c-1.3-1.3-2-3-2-5c0-2,0.7-3.6,2-5s3-2,5-2c1.9,0,3.5,0.7,4.9,2s2,3,2,5c0,2-0.7,3.6-2,5
					c-1.3,1.3-3,2-4.9,2C1008.8,160.7,1007.1,160,1005.8,158.6z"/>
				<path class="st7" d="M1046.6,108.7c2.6-1.5,5.8-2.2,9.4-2.2v11.3h-2.8c-4.3,0-7.5,1.1-9.7,3.2c-2.2,2.2-3.3,5.9-3.3,11.3V160
					h-10.9v-52.6h10.9v7.6C1041.9,112.3,1044,110.2,1046.6,108.7z"/>
				<path class="st7" d="M1074,157.5c-4-2.3-7.2-5.4-9.5-9.6c-2.3-4.1-3.4-8.9-3.4-14.3c0-5.3,1.2-10.1,3.5-14.2
					c2.4-4.1,5.6-7.3,9.6-9.6c4.1-2.2,8.6-3.3,13.7-3.3c5,0,9.6,1.1,13.7,3.3c4.1,2.2,7.3,5.4,9.6,9.6c2.4,4.1,3.5,8.9,3.5,14.2
					c0,5.3-1.2,10.1-3.6,14.2c-2.4,4.1-5.7,7.3-9.9,9.6c-4.2,2.3-8.8,3.4-13.8,3.4C1082.5,160.8,1078,159.7,1074,157.5z
					 M1095.4,149.4c2.5-1.3,4.4-3.3,6-6c1.5-2.7,2.3-5.9,2.3-9.7c0-3.8-0.7-7.1-2.2-9.7c-1.5-2.6-3.4-4.6-5.8-6c-2.4-1.3-5-2-7.8-2
					c-2.8,0-5.4,0.7-7.8,2c-2.4,1.3-4.3,3.3-5.7,6c-1.4,2.6-2.1,5.9-2.1,9.7c0,5.7,1.4,10,4.3,13.1c2.9,3.1,6.5,4.6,10.9,4.6
					C1090.3,151.4,1092.9,150.7,1095.4,149.4z"/>
				<path class="st7" d="M1125.3,119.3c2.2-4.1,5.2-7.3,9.1-9.5c3.9-2.2,8.3-3.3,13.4-3.3c6.4,0,11.6,1.5,15.8,4.5
					c4.2,3,7,7.3,8.5,12.9h-11.7c-1-2.6-2.5-4.6-4.6-6.1c-2.1-1.5-4.7-2.2-7.9-2.2c-4.5,0-8,1.6-10.7,4.7c-2.6,3.2-4,7.6-4,13.2
					c0,5.7,1.3,10.1,4,13.3c2.6,3.2,6.2,4.8,10.7,4.8c6.3,0,10.5-2.8,12.5-8.3h11.7c-1.5,5.3-4.4,9.6-8.6,12.8
					c-4.2,3.2-9.4,4.7-15.7,4.7c-5,0-9.5-1.1-13.4-3.4c-3.9-2.3-6.9-5.4-9.1-9.6c-2.2-4.1-3.3-8.9-3.3-14.3
					C1122,128.2,1123.1,123.4,1125.3,119.3z"/>
				<path class="st7" d="M1202.3,133.7l24.3,26.3h-14.7l-19.5-22.6V160h-10.9V89.3h10.9v41.1l19.1-23h15.1L1202.3,133.7z"/>
				<path class="st7" d="M1241.7,158.6c-3.3-1.5-5.9-3.5-7.8-6.1c-1.9-2.6-2.9-5.5-3.1-8.6h11.3c0.2,2.2,1.3,4.1,3.2,5.6
					c1.9,1.5,4.4,2.2,7.3,2.2c3.1,0,5.4-0.6,7.1-1.8c1.7-1.2,2.5-2.7,2.5-4.5c0-2-0.9-3.4-2.8-4.4c-1.9-1-4.9-2-8.9-3.2
					c-3.9-1.1-7.2-2.1-9.6-3.2c-2.5-1-4.6-2.6-6.4-4.7c-1.8-2.1-2.7-4.9-2.7-8.3c0-2.8,0.8-5.4,2.5-7.7c1.7-2.3,4-4.2,7.1-5.5
					c3.1-1.3,6.6-2,10.7-2c6,0,10.8,1.5,14.5,4.5c3.7,3,5.6,7.1,5.9,12.4h-10.9c-0.2-2.4-1.1-4.2-2.9-5.6c-1.7-1.4-4-2.1-7-2.1
					c-2.9,0-5.1,0.5-6.6,1.6c-1.5,1.1-2.3,2.5-2.3,4.3c0,1.4,0.5,2.6,1.5,3.5c1,1,2.3,1.7,3.7,2.2c1.5,0.5,3.6,1.2,6.5,2.1
					c3.8,1,7,2.1,9.4,3.1c2.5,1.1,4.6,2.6,6.4,4.6c1.8,2,2.7,4.7,2.8,8.1c0,3-0.8,5.7-2.5,8c-1.7,2.4-4,4.2-7,5.5
					c-3,1.3-6.6,2-10.7,2C1248.7,160.8,1245,160.1,1241.7,158.6z"/>
			</g>
		</g>
	</g>
</g>
</svg>
